<svg width="1194" height="1052" viewBox="0 0 1194 1052" fill="none" xmlns="http://www.w3.org/2000/svg">
<g clip-path="url(#clip0_151_301)">
<path d="M1348 899.95H-152V899.2H1348V899.95Z" fill="#EBEBEB"/>
<path d="M1098.34 947.48H1197.71V948.23H1098.34V947.48V947.48Z" fill="#EBEBEB"/>
<path d="M815.58 955.62H841.66V956.37H815.58V955.62Z" fill="#EBEBEB"/>
<path d="M1037.76 919.62H1095.34V920.37H1037.76V919.62Z" fill="#EBEBEB"/>
<path d="M5.37988 924.67H134.96V925.42H5.37988V924.67V924.67Z" fill="#EBEBEB"/>
<path d="M161.67 924.67H180.67V925.42H161.67V924.67Z" fill="#EBEBEB"/>
<path d="M242.41 937.33H523.44V938.08H242.41V937.33V937.33Z" fill="#EBEBEB"/>
<path fill-rule="evenodd" clip-rule="evenodd" d="M559.04 765.4H-20.2599C-29.6999 765.4 -37.3799 757.72 -37.3799 748.28V-66.0099C-37.3799 -75.4499 -29.6999 -83.1299 -20.2599 -83.1299H559.04C568.48 -83.1299 576.16 -75.4499 576.16 -66.0099V748.28C576.16 757.72 568.48 765.4 559.04 765.4ZM-20.2599 -82.3899C-29.2899 -82.3899 -36.6299 -75.0499 -36.6299 -66.0199V748.27C-36.6299 757.3 -29.2899 764.64 -20.2599 764.64H559.04C568.07 764.64 575.41 757.3 575.41 748.27V-66.0199C575.41 -75.0499 568.07 -82.3899 559.04 -82.3899H-20.2599Z" fill="#EBEBEB"/>
<path fill-rule="evenodd" clip-rule="evenodd" d="M1207.93 765.4H628.63C619.19 765.4 611.51 757.72 611.51 748.28V-66.0099C611.51 -75.4499 619.19 -83.1299 628.63 -83.1299H1207.93C1217.37 -83.1299 1225.05 -75.4499 1225.05 -66.0099V748.28C1225.05 757.72 1217.37 765.4 1207.93 765.4ZM628.63 -82.3899C619.6 -82.3899 612.26 -75.0499 612.26 -66.0199V748.27C612.26 757.3 619.6 764.64 628.63 764.64H1207.93C1216.96 764.64 1224.3 757.3 1224.3 748.27V-66.0199C1224.3 -75.0499 1216.96 -82.3899 1207.93 -82.3899H628.63Z" fill="#EBEBEB"/>
<path d="M503.34 636.37H124.09V609.6H503.34V636.37Z" fill="#EBEBEB"/>
<path d="M503.34 636.37H338.43V609.6H503.34V636.37V636.37Z" fill="#E0E0E0"/>
<path d="M180.12 899.2H124.09V636.38H180.12V899.2Z" fill="#EBEBEB"/>
<path d="M180.12 663.5L124.09 644.42V636.38H180.12V663.51V663.5Z" fill="#E0E0E0"/>
<path d="M503.34 899.2H447.31V636.38H503.34V899.2V899.2Z" fill="#E0E0E0"/>
<path d="M394.46 899.2H338.43V636.38H394.46V899.2V899.2Z" fill="#EBEBEB"/>
<path d="M394.46 663.5L338.43 644.42V636.38H394.46V663.51V663.5Z" fill="#E0E0E0"/>
<path d="M288.99 899.2H232.96V636.38H288.99V899.2Z" fill="#E0E0E0"/>
<path d="M539 420.5H61V13.5H539V420.5Z" fill="#EBEBEB"/>
<path d="M539 13.5H544.33V420.5H539V13.5Z" fill="#E0E0E0"/>
<path d="M79 402.5V31.5H521V402.5H79Z" fill="#F5F5F5"/>
<path d="M294.66 346.17C321.59 256.09 329.16 123.43 386.6 141.74C424.89 153.95 418.96 225.48 368.79 356.34L294.66 346.18V346.17Z" fill="white"/>
<path d="M235.12 356.33C178.2 155.44 178.2 53.6599 235.12 51.0199C320.5 47.0499 313.58 220.22 341.06 350.66L235.12 356.33Z" fill="white"/>
<path d="M415.73 349.84C419.53 435.94 405.43 523.7 379.18 609.61H236.05C209.8 523.7 195.7 435.94 199.5 349.84C199.84 342.13 206.15 336.03 214.46 336.03H401.36C409.08 336.03 415.38 342.13 415.72 349.84H415.73Z" fill="#EBEBEB"/>
<path d="M826.6 899.2H816.07V58.8999H826.6V899.2Z" fill="#E0E0E0"/>
<path d="M1074.08 899.2H1063.55V58.8999H1074.08V899.2Z" fill="#E0E0E0"/>
<path d="M751.93 899.2H741.4V58.8999H751.93V899.2Z" fill="#EBEBEB"/>
<path d="M999.4 899.2H988.87V58.8999H999.4V899.2Z" fill="#EBEBEB"/>
<path d="M1074.08 64.6399H741.4V53.1499H1074.08V64.6399Z" fill="#EBEBEB"/>
<path d="M1074.08 270.41H741.4V258.92H1074.08V270.41Z" fill="#EBEBEB"/>
<path d="M1074.08 476.18H741.4V464.69H1074.08V476.18Z" fill="#EBEBEB"/>
<path d="M1074.08 681.95H741.4V670.46H1074.08V681.95Z" fill="#EBEBEB"/>
<path d="M1074.08 887.71H741.4V876.22H1074.08V887.71Z" fill="#EBEBEB"/>
<path d="M1074.08 64.6399H999.41V53.1499H1074.08V64.6399Z" fill="#E0E0E0"/>
<path d="M1074.08 270.4H999.41V258.91H1074.08V270.4Z" fill="#E0E0E0"/>
<path d="M1074.08 476.17H999.41V464.68H1074.08V476.17Z" fill="#E0E0E0"/>
<path d="M1074.08 681.94H999.41V670.45H1074.08V681.94Z" fill="#E0E0E0"/>
<path d="M1074.08 887.71H999.41V876.22H1074.08V887.71Z" fill="#E0E0E0"/>
<path d="M894.76 142.29C905.34 142.29 913.92 150.87 913.92 161.45V258.92H797.29V161.45C797.29 150.87 805.87 142.29 816.45 142.29C827.03 142.29 835.61 133.71 835.61 123.13V106.94H875.61V123.13C875.61 133.71 884.19 142.29 894.77 142.29H894.76Z" fill="#F0F0F0"/>
<path d="M958.36 464.69H783.1V397.77H958.36V464.69Z" fill="#F0F0F0"/>
<path d="M958.36 397.77H988.87V464.69H958.36V397.77Z" fill="#E6E6E6"/>
<path d="M958.36 427.54H988.87V434.91H958.36V427.54Z" fill="#EBEBEB"/>
<path d="M958.36 434.91H783.1V427.54H958.36V434.91Z" fill="#F5F5F5"/>
<path d="M911.4 876.23H774.51V757.91H911.4V876.23Z" fill="#F0F0F0"/>
<path d="M911.4 757.91H935.23V876.23H911.4V757.91V757.91Z" fill="#E6E6E6"/>
<path d="M911.4 810.55H935.23V823.59H911.4V810.55Z" fill="#EBEBEB"/>
<path d="M911.4 823.59H774.51V810.55H911.4V823.59Z" fill="#F5F5F5"/>
<path d="M911.4 796.75H935.23V801.41H911.4V796.75Z" fill="#EBEBEB"/>
<path d="M911.4 801.4H774.51V796.74H911.4V801.4Z" fill="#F5F5F5"/>
<path d="M807.9 670.45H783.11V550.16H807.9V670.45Z" fill="#F0F0F0"/>
<path d="M807.9 627.59H783.11V593.02H807.9V627.59Z" fill="#FAFAFA"/>
<path d="M807.9 550.16H892.2V670.45H807.9V550.16Z" fill="#E6E6E6"/>
<path d="M846.17 670.45H818.17V534.6H846.17V670.45Z" fill="#EBEBEB"/>
<path d="M846.17 598.7H818.17V577.78H846.17V598.7Z" fill="#FAFAFA"/>
<path d="M846.17 633.63H818.17V612.71H846.17V633.63Z" fill="#FAFAFA"/>
<path d="M846.17 534.6H941.37V670.45H846.17V534.6Z" fill="#E0E0E0"/>
<path d="M877.32 670.45H862.24V550.16H877.32V670.45Z" fill="#F0F0F0"/>
<path d="M874.73 655.21H864.84V565.4H874.73V655.21Z" fill="#FAFAFA"/>
<path d="M877.32 550.16H928.58V670.45H877.32V550.16Z" fill="#E6E6E6"/>
<path d="M917.62 670.45H900.59V543.81H917.62V670.45Z" fill="#EBEBEB"/>
<path d="M917.62 603.56H900.59V584.06H917.62V603.56Z" fill="#FAFAFA"/>
<path d="M917.62 636.12H900.59V616.62H917.62V636.12Z" fill="#FAFAFA"/>
<path d="M917.62 543.81H975.51V670.45H917.62V543.81Z" fill="#E0E0E0"/>
<path d="M883.48 397.77C862.88 397.77 846.17 381.07 846.17 360.46C846.17 339.86 862.87 323.15 883.48 323.15C904.08 323.15 920.79 339.85 920.79 360.46C920.79 381.06 904.09 397.77 883.48 397.77Z" fill="#F5F5F5"/>
<path d="M924.76 397.77C910.47 397.77 898.89 386.19 898.89 371.9C898.89 357.61 910.47 346.03 924.76 346.03C939.05 346.03 950.63 357.61 950.63 371.9C950.63 386.19 939.05 397.77 924.76 397.77Z" fill="#EBEBEB"/>
<path d="M1179.67 1000.71C1179.67 1019.47 919.25 1034.68 598 1034.68C276.75 1034.68 16.3301 1019.47 16.3301 1000.71C16.3301 981.95 276.75 966.74 598 966.74C919.25 966.74 1179.67 981.95 1179.67 1000.71Z" fill="#F5F5F5"/>
<path d="M611.66 967.08C611.66 977.8 602.97 986.49 592.25 986.49H245.74C235.02 986.49 226.33 977.8 226.33 967.08V768.07H611.66V967.08Z" fill="#FD5D03"/>
<path d="M192.78 725.15C189.1 720.44 192.27 716.63 199.85 716.63H445.03C452.62 716.63 461.75 720.45 465.42 725.15L498.97 768.07H226.32L192.77 725.15H192.78Z" fill="#FD5D03"/>
<path opacity="0.2" d="M192.78 725.15C189.1 720.44 192.27 716.63 199.85 716.63H445.03C452.62 716.63 461.75 720.45 465.42 725.15L498.97 768.07H226.32L192.77 725.15H192.78Z" fill="black"/>
<path d="M611.66 768.07H339.01L372.56 740.09C376.24 737.02 385.37 734.54 392.95 734.54H638.13C645.72 734.54 648.88 737.03 645.2 740.09L611.65 768.07H611.66Z" fill="#FD5D03"/>
<path opacity="0.2" d="M611.66 967.08C611.66 977.8 602.97 986.49 592.25 986.49H358.42C347.7 986.49 339.01 977.8 339.01 967.08V768.07H611.66V967.08V967.08Z" fill="white"/>
<path opacity="0.5" d="M305.17 768.07V904.51L296.12 898.28L287.88 904.51L281.99 896.23L276.22 904.51L269.59 897.07L260.17 904.51V768.07H305.17V768.07Z" fill="white"/>
<path d="M321.17 470.44L272.71 429.76Z" fill="#FD5D03"/>
<path d="M321.17 470.44L272.71 429.76" stroke="#407BFF" stroke-width="3"/>
<path d="M346.28 491.52L331.5 479.11Z" fill="#FD5D03"/>
<path d="M346.28 491.52L331.5 479.11" stroke="#407BFF" stroke-width="3"/>
<path d="M469.91 578.16L277.87 416.93C272.67 412.56 272.06 405.51 276.45 400.47L297.34 360L438.45 198.21L651.27 376.87L491.44 576.65C486.21 582.65 476.12 583.35 469.93 578.15L469.91 578.16Z" fill="#FD5D03"/>
<path opacity="0.5" d="M416.54 459.03L393.53 496.09L387.72 486.9L380.18 484.69L377.34 477.36L371.17 477L368.03 468.4L358.78 466.41L381.79 429.35L416.53 459.03H416.54Z" fill="white"/>
<path opacity="0.1" d="M644.3 371.04L500.95 530.95L297.33 360.01L438.44 198.22L644.3 371.04V371.04Z" fill="black"/>
<path d="M701.41 373.55L560.3 535.34L500.95 530.95L644.3 371.04L701.41 373.55V373.55Z" fill="#FD5D03"/>
<path opacity="0.3" d="M701.41 373.55L560.3 535.34L500.95 530.95L644.3 371.04L701.41 373.55V373.55Z" fill="#FD5D03"/>
<path d="M438.44 198.22L297.33 360.01L237.98 355.62L381.33 195.71L438.44 198.22Z" fill="#FD5D03"/>
<path opacity="0.4" d="M438.44 198.22L297.33 360.01L237.98 355.62L381.33 195.71L438.44 198.22Z" fill="black"/>
<path opacity="0.1" d="M412.08 261.7L438.45 198.23L644.31 371.05L600.17 420.29L412.09 261.7H412.08Z" fill="black"/>
<path opacity="0.2" d="M297.33 360.01L438.44 198.22L412.07 261.69L312.72 372.93L297.33 360.01V360.01Z" fill="black"/>
<path d="M694.04 70.0198C694.61 71.9598 694.04 73.8298 692.78 74.1998C691.51 74.5698 690.03 73.2998 689.46 71.3698C688.89 69.4298 689.46 67.5598 690.72 67.1898C691.99 66.8198 693.47 68.0898 694.04 70.0198Z" fill="#263238"/>
<path d="M699.6 92.0798C696 94.1898 692.75 94.5198 689.84 93.0598C692.02 88.5198 693.48 82.0898 694.23 73.7798L699.6 92.0798Z" fill="#ED847E"/>
<path d="M697.03 57.2598C692.1 55.5198 688.65 58.0398 688.51 58.1498C688 58.5398 687.25 58.4498 686.85 57.9298C686.45 57.4098 686.55 56.6698 687.07 56.2698C687.26 56.1298 691.63 52.8498 697.82 55.0298C698.44 55.2498 698.76 55.9198 698.55 56.5398C698.45 56.8298 698.24 57.0598 697.99 57.1898C697.71 57.3398 697.37 57.3698 697.04 57.2598H697.03Z" fill="#263238"/>
<path d="M760.72 82.85C762.03 98.75 765.97 127.93 775.37 134.57C773.88 147.31 761.91 155.33 739.48 158.64C714.81 162.28 708.01 157.03 719.08 142.88C738.56 135.07 735.83 120.17 730.23 106.61L744.53 90.22C749.9 84.07 760.05 74.71 760.72 82.84V82.85Z" fill="#FFC3BD"/>
<path d="M715.56 153.96C713.5 149.09 713.89 144.4 716.73 139.89C731.59 127.11 771.11 123.1 780.78 127.16C784.41 128.68 790.48 139.6 787.47 142.32L715.57 153.96H715.56Z" fill="white"/>
<path fill-rule="evenodd" clip-rule="evenodd" d="M913.27 944.22C910.81 944.97 908.32 945.33 907.03 944.4C906.49 944.01 905.91 943.23 906.23 941.7C906.4 940.9 906.86 940.27 907.6 939.83C910.83 937.94 918.84 940.44 919.18 940.54C919.4 940.61 919.56 940.81 919.59 941.04C919.62 941.27 919.5 941.5 919.3 941.62C918.16 942.29 915.73 943.45 913.27 944.21V944.22ZM908.87 940.58C908.62 940.66 908.39 940.75 908.2 940.87C907.75 941.13 907.49 941.49 907.39 941.95C907.16 943.04 907.59 943.34 907.73 943.44C909.17 944.47 914.06 942.99 917.45 941.29C915 940.65 911.06 939.91 908.88 940.57L908.87 940.58Z" fill="#FD5D03"/>
<path fill-rule="evenodd" clip-rule="evenodd" d="M919.18 941.69C919.09 941.72 918.99 941.72 918.89 941.7C916 941.11 909.61 937.34 909.29 934.52C909.23 934.01 909.33 933.06 910.64 932.48C911.49 932.1 912.37 932.1 913.28 932.47C916.76 933.89 919.45 940.62 919.56 940.9C919.64 941.1 919.6 941.33 919.46 941.5C919.38 941.59 919.29 941.65 919.18 941.69V941.69ZM911.38 933.47C911.3 933.5 911.21 933.53 911.13 933.56C910.42 933.88 910.46 934.23 910.48 934.39C910.66 936.06 914.93 939.08 917.96 940.2C917.06 938.27 915.06 934.48 912.83 933.57C912.32 933.36 911.84 933.33 911.38 933.47Z" fill="#FD5D03"/>
<path fill-rule="evenodd" clip-rule="evenodd" d="M737.45 976.45C734.24 976.45 731.14 976.01 730.1 974.56C729.74 974.06 729.45 973.2 730.15 971.97C730.54 971.28 731.17 970.82 732.03 970.58C736.19 969.45 744.94 974.43 745.31 974.64C745.52 974.76 745.64 975.01 745.6 975.25C745.56 975.49 745.37 975.69 745.13 975.74C743.53 976.06 740.45 976.44 737.45 976.44V976.45ZM733.48 971.6C733.06 971.6 732.68 971.64 732.33 971.74C731.78 971.89 731.4 972.16 731.17 972.57C730.75 973.31 730.9 973.67 731.06 973.88C732.22 975.5 738.55 975.54 743.2 974.88C740.88 973.69 736.4 971.61 733.48 971.61V971.6Z" fill="#FD5D03"/>
<path fill-rule="evenodd" clip-rule="evenodd" d="M745.01 975.75C744.93 975.75 744.85 975.73 744.77 975.7C741.75 974.34 735.77 968.93 736.22 966.1C736.33 965.44 736.8 964.61 738.43 964.44C739.65 964.32 740.75 964.66 741.72 965.46C744.9 968.07 745.58 974.82 745.61 975.1C745.63 975.31 745.54 975.52 745.37 975.64C745.27 975.71 745.15 975.75 745.02 975.75H745.01ZM738.9 965.6C738.78 965.6 738.66 965.61 738.54 965.62C737.47 965.73 737.41 966.15 737.38 966.29C737.11 967.99 741.17 972.24 744.25 974.09C743.93 972.12 743.04 968.09 740.95 966.37C740.32 965.85 739.64 965.6 738.89 965.6H738.9Z" fill="#FD5D03"/>
<path d="M772.53 975.16H747.5L745.01 917.2H770.04L772.53 975.16Z" fill="#FFC3BD"/>
<path d="M948.48 935.59L925.42 943.54L901.48 888.9L924.54 880.95L948.48 935.59Z" fill="#FFC3BD"/>
<path d="M919.94 937.81L946.82 929.57C947.8 929.27 948.85 929.69 949.36 930.58L960.61 950.4C961.78 952.46 960.68 955.07 958.41 955.73C948.98 958.45 944.25 959.29 932.43 962.92C925.16 965.15 906.81 972.11 896.51 974.18C886.44 976.21 882.82 966.34 886.85 964.57C904.92 956.63 912.24 947.6 916.51 940.48C917.28 939.2 918.51 938.26 919.94 937.82V937.81Z" fill="#263238"/>
<path d="M747.67 972.26H775C776.02 972.26 776.91 972.97 777.13 973.97L782.07 996.21C782.58 998.52 780.83 1000.7 778.47 1000.66C768.61 1000.49 754.37 999.91 741.97 999.91C727.48 999.91 721.37 1000.7 704.38 1000.7C694.11 1000.7 691.25 990.31 695.56 989.37C715.14 985.09 724.72 984.63 741.64 974.2C743.48 973.07 745.51 972.25 747.67 972.25V972.26Z" fill="#263238"/>
<path d="M820.42 150.53C827.7 157.22 834.01 163.91 840.54 170.89C846.92 177.91 853.15 185.12 859.03 192.82C864.96 200.48 870.59 208.52 875.7 217.56C878.25 222.11 880.69 226.88 882.73 232.38C883.24 233.77 883.75 235.12 884.18 236.67C884.63 238.16 885.07 239.65 885.41 241.36L885.92 243.84L886.27 246.6C886.49 247.93 886.7 251.58 886.28 254.25C885.5 259.88 883.3 264.22 881.12 267.56C878.9 270.88 876.52 273.36 874.21 275.52C869.57 279.79 865.02 282.8 860.51 285.51C851.49 290.82 842.54 294.62 833.57 298.07C815.58 304.83 797.65 309.54 779.04 313.06L773.79 295.02C790.08 287.96 806.57 280.36 821.89 272.2C829.52 268.11 836.93 263.71 843.21 259.07C846.32 256.78 849.16 254.34 850.99 252.19C851.91 251.14 852.53 250.14 852.77 249.62C852.99 249.11 852.68 249.17 852.44 250.25C852.24 252.26 852.29 250.7 851.79 249.62C851.66 249.1 851.37 248.42 851.1 247.75C850.88 247.11 850.49 246.36 850.16 245.63C848.74 242.69 846.86 239.4 844.74 236.12C840.43 229.53 835.21 222.85 829.74 216.29C824.22 209.74 818.41 203.24 812.44 196.84C806.58 190.43 800.19 184.02 794.32 178.07L820.42 150.54V150.53Z" fill="#FFC3BD"/>
<path d="M789.06 306.7C787.02 314.6 781.34 320.48 772.03 324.33L756.85 299.37L780.61 292.23L789.07 306.71L789.06 306.7Z" fill="#FFC3BD"/>
<path d="M756.84 299.36L772.02 324.32L756.75 328.78L747.46 308.19L756.84 299.36Z" fill="#FFC3BD"/>
<path d="M826.42 146.74C843.77 157.88 855.79 170.63 862.49 184.98L813.61 218.43C779.76 193.65 763.59 173.28 765.09 157.31C767.9 127.49 798.45 128.79 826.42 146.74V146.74Z" fill="#FD5D03"/>
<g opacity="0.3">
<path d="M826.42 146.74C843.77 157.88 855.79 170.63 862.49 184.98L813.61 218.43C779.76 193.65 763.59 173.28 765.09 157.31C767.9 127.49 798.45 128.79 826.42 146.74V146.74Z" fill="white"/>
</g>
<path d="M719.08 142.88C733.75 139.33 758.33 136.25 775.37 134.56C779.28 134.17 783.24 133.9 787.1 133.7C804.8 132.8 819.68 146.89 819.82 164.61C820.55 251.9 842.7 331.71 844.57 350.02L712.15 369.58C677.42 249.21 667.38 177.81 682.01 155.37C693.82 150.16 706.18 146 719.08 142.87V142.88Z" fill="#FD5D03"/>
<g opacity="0.3">
<path d="M719.08 142.88C733.75 139.33 758.33 136.25 775.37 134.56C779.28 134.17 783.24 133.9 787.1 133.7C804.8 132.8 819.68 146.89 819.82 164.61C820.55 251.9 842.7 331.71 844.57 350.02L712.15 369.58C677.42 249.21 667.38 177.81 682.01 155.37C693.82 150.16 706.18 146 719.08 142.87V142.88Z" fill="white"/>
</g>
<path opacity="0.2" d="M678.76 213.39L679.2 212.88L710.36 215.65C715.08 235.75 697.75 263.17 688.61 275.89C683.29 250.13 680.3 229.63 678.76 213.4V213.39Z" fill="black"/>
<path opacity="0.2" d="M770.05 917.22L771.33 947.09H746.29L745.01 917.22H770.05Z" fill="black"/>
<path opacity="0.2" d="M936.91 909.12L913.84 917.07L901.49 888.91L924.56 880.96L936.91 909.12Z" fill="black"/>
<path d="M757.44 46.9598C762.96 71.1798 767.42 85.0698 758.99 100.8C746.31 124.47 713.75 122.19 701.1 100.12C689.72 80.2498 682.6 43.9798 703.11 27.6798C723.31 11.6198 751.91 22.7398 757.44 46.9598V46.9598Z" fill="#FFC3BD"/>
<path d="M708.81 70.7L699.6 76.34L700.48 44.84C694.04 45.28 688.48 43.67 683.81 40.01C687.14 36.84 738.98 18.68 755.14 21.84C756.25 21.37 757.49 20.09 758.87 18.01C759.29 20.64 758.58 22.45 756.74 23.45C758.74 23.07 763.67 24.01 765.05 26.93C762.15 26.32 759.86 26.45 758.17 27.33C770.26 29.14 774.13 38.37 769.8 55.02C765.02 73.35 763.43 87.8 765.01 98.35C756.09 105.24 747.74 108.04 739.96 106.77C727.54 93.1 709.63 76.66 708.79 70.72L708.81 70.7Z" fill="#263238"/>
<path d="M691.18 37.4999C676.55 37.6199 671.3 30.3699 667.55 24.3699C678.05 23.2399 699.93 16.4899 716.17 15.3699C732.42 14.2399 750.17 17.2499 744.8 24.2399C741.22 28.9099 723.34 33.3199 691.17 37.4899L691.18 37.4999Z" fill="#263238"/>
<path d="M694.4 30.9899C682.48 29.3299 670.68 17.9999 679.68 7.15991C683.01 15.1399 705.5 14.1999 721.44 10.8699C742.35 6.48991 756.99 13.5599 749.55 27.8699C746.83 33.0899 728.45 34.1299 694.4 30.9899V30.9899Z" fill="#263238"/>
<path d="M721.79 63.5299C723.69 69.7499 723 76.5299 720.99 81.5399C717.97 89.0799 711.33 87.5499 707.87 81.0299C704.76 75.1599 702.58 64.1599 707.67 58.7299C712.69 53.3799 719.61 56.4199 721.79 63.5299Z" fill="#FFC3BD"/>
<path d="M844.57 350.02C855.04 476.67 863.94 568.08 871.28 624.26C880.83 697.39 903.61 787.66 939.6 895.05L897.49 909.58C841.35 766.93 807.59 669.45 796.2 617.14C785.81 569.37 773.45 484.54 759.12 362.64L844.57 350.02V350.02Z" fill="#263238"/>
<path d="M938.66 883.54L944.41 898.19L895.36 914.11C889.49 902.17 886.61 896.18 886.74 896.13L938.66 883.53V883.54Z" fill="#FD5D03"/>
<path opacity="0.3" d="M770.97 456.47C777.69 507.27 786.3 567.34 793.88 605.9C804.84 546.88 807.62 472.63 770.97 456.47V456.47Z" fill="black"/>
<path d="M807.37 355.52C786.13 477.67 774.82 567.07 773.45 623.74C772.19 675.71 774.16 781.57 779.37 941.32H736.98C712.26 778.48 698.95 670.61 697.06 617.68C695.25 566.8 700.28 484.1 712.16 369.59L807.38 355.53L807.37 355.52Z" fill="#263238"/>
<path d="M784.17 926.32L782.78 942.03H731.21C729.49 930.3 728.69 924.43 728.82 924.43L784.18 926.32H784.17Z" fill="#FD5D03"/>
<path d="M703.94 197.56C699.25 205 694.51 211.69 689.57 218.58C684.68 225.42 679.51 232.07 674.25 238.68C663.61 251.82 652.27 264.53 639.54 276.53C636.17 279.45 633.07 282.45 629.46 285.25L626.82 287.37L625.5 288.43C625.01 288.82 624.81 289.02 623.81 289.73C620.48 292.15 617.19 293.65 614.13 294.74C607.96 296.85 602.6 297.34 597.55 297.57C592.51 297.78 587.79 297.46 583.23 296.93C565.03 294.69 548.99 289.61 532.99 282.73L538.16 264.67C553.71 266.22 569.96 267.55 584.44 266.89C588.04 266.68 591.52 266.32 594.62 265.78C597.69 265.24 600.47 264.36 601.94 263.49C602.68 263.09 603.07 262.71 602.97 262.62C602.8 262.74 603.35 262.24 603.64 261.97L604.64 261.03L606.65 259.15C609.35 256.75 611.92 253.83 614.55 251.21C619.74 245.62 624.88 239.89 629.8 233.79C634.81 227.82 639.64 221.58 644.42 215.3C649.23 209.02 653.87 202.59 658.57 196.19C663.2 189.81 667.81 183.1 672.12 176.88L703.93 197.55L703.94 197.56Z" fill="#FFC3BD"/>
<path d="M721.35 189.6C728.08 211.59 711.93 234.78 672.92 259.19L634.89 210.72C641.92 196.53 652.42 181.84 666.38 166.65C692.25 138.49 713.67 164.5 721.35 189.61V189.6Z" fill="#FD5D03"/>
<g opacity="0.3">
<path d="M721.35 189.6C728.08 211.59 711.93 234.78 672.92 259.19L634.89 210.72C641.92 196.53 652.42 181.84 666.38 166.65C692.25 138.49 713.67 164.5 721.35 189.61V189.6Z" fill="white"/>
</g>
<path d="M547.01 281.93C539.25 291.28 530.04 292.97 519.38 287L516.14 260.34L546.93 265.99L547.02 281.93H547.01Z" fill="#FFC3BD"/>
<path d="M516.14 260.34L519.38 287L510.98 285.58L504.32 266.35L516.14 260.34Z" fill="#FFC3BD"/>
</g>
<defs>
<clipPath id="clip0_151_301">
<rect width="1194" height="1052" fill="white"/>
</clipPath>
</defs>
</svg>
