<svg width="1436" height="1346" viewBox="0 0 1436 1346" fill="none" xmlns="http://www.w3.org/2000/svg">
<path d="M1216.36 641.11C1492.02 800.26 1492.02 1058.31 1216.36 1217.46C940.69 1376.62 493.75 1376.62 218.09 1217.46C-57.57 1058.31 -57.57 800.26 218.09 641.11C493.76 481.95 940.7 481.95 1216.36 641.11Z" fill="#F5F5F5"/>
<path d="M1324.25 931.78C1402.45 976.93 1402.45 1050.13 1324.25 1095.28C1246.05 1140.43 1119.26 1140.43 1041.06 1095.28C962.86 1050.13 962.86 976.93 1041.06 931.78C1119.26 886.63 1246.05 886.63 1324.25 931.78Z" fill="#E0E0E0"/>
<path d="M675.85 1075.89L449.96 945.43L708.16 796.36L934.09 926.8L675.85 1075.89V1075.89Z" fill="#E0E0E0"/>
<path d="M305.12 894.48L596.48 1062.7L352.09 1203.75L60.73 1035.53L305.12 894.48Z" fill="#E0E0E0"/>
<path d="M491.54 244.89C491.49 246.46 490.39 248.06 488.23 249.3L200.87 414.21C196.63 416.65 189.75 416.65 185.5 414.21L85.54 356.85C83.38 355.61 82.28 354.01 82.23 352.44H82.22V335.89H82.23C82.28 334.32 83.38 332.72 85.54 331.48L372.9 166.57C377.14 164.13 384.02 164.13 388.27 166.57L488.23 223.93C490.39 225.17 491.49 226.77 491.54 228.34H491.55V244.89H491.54V244.89Z" fill="#F0F0F0"/>
<path d="M85.55 331.48L372.91 166.57C377.15 164.13 384.03 164.13 388.28 166.57L488.24 223.93C492.48 226.37 492.48 230.31 488.24 232.75L200.88 397.66C196.64 400.1 189.76 400.1 185.51 397.66L85.55 340.3C81.31 337.86 81.31 333.92 85.55 331.48V331.48Z" fill="#FAFAFA"/>
<path d="M193.18 399.5V416.04C190.41 416.04 187.64 415.41 185.51 414.21L85.54 356.85C83.37 355.62 82.27 353.99 82.24 352.44H82.2V335.9H82.24C82.26 335.27 82.51 334.64 82.87 334.03C81.71 336.16 82.58 338.62 85.54 340.31L185.51 397.67C187.6 398.9 190.41 399.5 193.18 399.5V399.5Z" fill="#E0E0E0"/>
<path d="M386.79 179.29L471.47 227.58L331.56 307.87L246.87 259.59L386.79 179.29V179.29Z" fill="#E0E0E0"/>
<path d="M332.53 304.2L250.84 257.32C252.97 251.26 252.81 244.2 250.4 236.13L331.57 282.52C332.6 285.93 332.93 293.16 332.53 304.2Z" fill="white"/>
<path d="M327.4 275.9C331.74 278.39 335.25 284.44 335.25 289.41V305.2C335.25 310.18 331.74 312.19 327.4 309.7L246.89 263.5L246.88 259.59L326.32 304.89C328.92 306.38 331.03 305.17 331.02 302.19L330.95 287.56C330.95 284.57 328.84 280.94 326.24 279.45L246.9 234.13V229.7L327.41 275.91L327.4 275.9Z" fill="#EBEBEB"/>
<path d="M246.89 229.7L386.8 149.41L467.31 195.61C471.64 198.1 475.16 204.15 475.16 209.12V224.91C475.16 227.39 474.29 229.14 472.86 229.96L332.95 310.25C334.38 309.43 335.25 307.68 335.25 305.2L335.26 289.4C335.26 284.43 331.74 278.37 327.41 275.89L246.89 229.7V229.7Z" fill="#FAFAFA"/>
<path d="M472.85 201.44C474.27 203.89 475.15 206.64 475.15 209.13V224.92C475.15 227.4 474.28 229.15 472.85 229.97L332.94 310.26C334.37 309.44 335.24 307.69 335.24 305.21L335.25 289.41C335.25 286.92 334.37 284.17 332.95 281.72L472.84 201.44H472.85Z" fill="#F0F0F0"/>
<path d="M256.66 194.62L254.53 200.84L159.98 150.12L160.77 139.43L256.66 194.62Z" fill="#EBEBEB"/>
<path d="M241.28 208.06L147.89 153.42L163.82 144.22L255.41 197.09L241.28 208.05V208.06Z" fill="white"/>
<path d="M234.69 208.52L238.52 210.74C239.29 211.18 240.27 211.43 241.28 211.51L274.3 345.94C273.29 345.86 272.31 345.6 271.54 345.16L218.41 314.41C216.54 313.33 215.02 310.7 215.02 308.53L224.07 202.4L234.68 208.52H234.69Z" fill="#E0E0E0"/>
<path d="M245.32 210.74L254.79 202.63L261.75 196.67C262.46 195.54 263.29 194.69 262.84 193.76L295.42 327.23L295.47 327.33C295.93 328.27 296.05 330.37 294.77 331.1L278.34 345.16C277.23 345.8 275.73 346.06 274.3 345.94L241.28 211.51C242.7 211.63 244.21 211.37 245.32 210.74V210.74Z" fill="#F0F0F0"/>
<path d="M261.75 192.74C263.63 193.82 263.16 195.03 261.75 196.66L245.32 210.73C243.44 211.81 240.4 211.81 238.53 210.73L224.08 202.39C222.2 201.31 221.87 199.74 223.34 198.9C224.81 198.05 227.52 198.25 229.39 199.33L240.79 205.91C241.41 206.27 242.43 206.27 243.05 205.91L255.06 195.48C255.69 195.12 255.69 194.53 255.06 194.17L160.77 139.42L165.29 136.81L261.75 192.73V192.74Z" fill="#FAFAFA"/>
<path d="M133.48 144.56L223.57 196.61V368.01L133.48 315.97V144.56V144.56Z" fill="#EBEBEB"/>
<path d="M200 210.14L113.54 160.31C122.33 158.23 128.98 154.6 133.48 149.41L220.68 199.45C210.62 205.7 203.73 209.27 200 210.14Z" fill="white"/>
<path d="M105.68 160.52L109.8 158.15L194.29 206.87C197.07 208.46 201.57 208.47 204.35 206.87L217.99 199.13C220.77 197.54 220.77 194.96 217.99 193.36L133.47 144.55L137.11 142.47L223.04 191.79C227.67 194.45 227.67 198.75 223.04 201.41L208.36 209.84C203.73 212.5 196.23 212.5 191.6 209.84L105.66 160.52H105.68Z" fill="#FAFAFA"/>
<path d="M191.62 209.85C196.24 212.5 203.75 212.5 208.38 209.85L223.07 201.41C225.37 200.08 226.53 198.35 226.53 196.6V368C226.53 369.75 225.37 371.48 223.07 372.81L208.38 381.23C203.76 383.88 196.25 383.88 191.62 381.23L105.69 331.92V160.52L191.62 209.85V209.85Z" fill="#EBEBEB"/>
<path d="M200 211.84C203.03 211.84 206.07 211.18 208.38 209.85L223.07 201.41C225.37 200.08 226.53 198.35 226.53 196.6V368C226.53 369.75 225.37 371.48 223.07 372.81L208.38 381.23C206.07 382.56 203.04 383.22 200 383.22V211.84V211.84Z" fill="#F0F0F0"/>
<path d="M925.02 833.87C922.98 797.92 907.05 725.94 928.03 659.53C938.69 625.77 963.18 590.01 999.64 579.93C1012.54 576.36 1028.49 576.84 1034.83 591.54C1035.9 594.01 1036.49 596.67 1036.68 599.36C1037.47 610.53 1032.4 620.41 1026.75 629.54C1013.83 650.41 997.43 668.94 984.34 689.7C977.4 700.71 971.46 712.26 966.31 724.17" stroke="#FD5D03" stroke-width="2.6"/>
<path d="M924.16 838.81C926.72 805.79 936.14 773.03 952.69 744.26C965.09 722.7 980.59 703.67 1003.15 691.38C1014.22 685.35 1027.71 681.04 1037.72 680.3C1048.18 679.53 1059.24 681.58 1067.46 688.1C1075.68 694.62 1080.32 706.17 1076.82 716.07C1074.48 722.7 1069.05 727.7 1063.6 732.13C1045.11 747.18 1024.18 758.96 1005.27 773.47C987.84 786.84 972.22 802.55 958.87 819.99C952.09 828.84 945.89 838.14 940.33 847.81C937.63 852.5 935.09 857.27 932.7 862.12C931.52 864.51 930.14 866.95 929.23 869.46C928.8 870.64 928.11 875.27 927.44 875.91C926.52 876.79 924.85 876.11 924.31 874.95C923.78 873.79 924.03 872.44 924.32 871.2C925.27 867.09 924.14 861.68 924.14 857.37C924.14 851.18 924.14 845 924.14 838.81H924.16Z" stroke="#FD5D03" stroke-width="2.6"/>
<path d="M1052.94 698.26C1010.25 710.49 946.97 759.51 924.16 850.52" stroke="#FD5D03" stroke-width="2.6" stroke-linecap="round" stroke-linejoin="round"/>
<path d="M1009.04 599.37C985.99 617.71 930.96 675.81 924.02 769.73" stroke="#FD5D03" stroke-width="2.6" stroke-linecap="round" stroke-linejoin="round"/>
<path d="M928.51 421.48V877.97C928.51 882.05 927.08 884.91 924.78 886.26C922.61 887.52 914.86 891.98 912.71 893.23C910.39 894.57 907.18 894.38 903.64 892.33L736.83 796.16C729.75 792.07 724.01 782.13 724.01 773.95V317.46C724.01 313.35 725.46 310.47 727.8 309.14C729.96 307.91 737.66 303.45 739.81 302.21C742.13 300.87 745.34 301.06 748.88 303.11L915.69 399.28C922.77 403.37 928.51 413.31 928.51 421.49V421.48Z" fill="#263238"/>
<path d="M784.15 795.71L773.33 826.94C772.66 828.87 770.68 831.27 768.91 832.29L763.29 835.53C761.52 836.55 758.65 836.55 756.88 835.53L751.26 832.29C749.49 831.27 748.05 828.78 748.05 826.74V788.77L760.08 781.83L784.14 795.72L784.15 795.71Z" fill="#263238"/>
<path d="M748.06 788.76L772.12 802.65L761.3 833.88C760.63 835.81 758.65 836.55 756.88 835.53L751.26 832.29C749.49 831.27 748.05 828.78 748.05 826.74V788.77L748.06 788.76Z" fill="#37474F"/>
<path d="M904.43 865L893.61 896.23C892.94 898.16 890.96 900.56 889.19 901.58L883.57 904.82C881.8 905.84 878.93 905.84 877.16 904.82L871.54 901.58C869.77 900.56 868.33 898.07 868.33 896.03V858.06L880.36 851.12L904.42 865.01L904.43 865Z" fill="#263238"/>
<path d="M868.35 858.06L892.41 871.95L881.59 903.18C880.92 905.11 878.94 905.85 877.17 904.83L871.55 901.59C869.78 900.57 868.34 898.08 868.34 896.04V858.07L868.35 858.06Z" fill="#37474F"/>
<path d="M737.68 310.28L904.49 406.45C911.57 410.54 917.31 420.48 917.31 428.66V885.15C917.31 889.24 915.87 892.11 913.55 893.45C911.23 894.79 908.02 894.6 904.48 892.55L737.67 796.38C730.59 792.29 724.85 782.35 724.85 774.17V317.68C724.85 313.57 726.3 310.69 728.64 309.36C730.96 308.04 734.15 308.25 737.67 310.28H737.68Z" fill="#37474F"/>
<path d="M495.46 920.55L736.03 781.66L916.46 885.83L928.49 892.77L675.9 1038.61L495.47 934.44V920.55H495.46Z" fill="#455A64"/>
<path d="M675.89 1038.61V1024.72L928.48 878.88V892.77L675.89 1038.61V1038.61Z" fill="#263238"/>
<path d="M676.11 1017.77C709.85 966.72 707.98 876.46 705.08 861.23C714.57 924.84 725.16 965.72 736.84 983.89" stroke="#FAFAFA" stroke-width="2.2"/>
<path d="M711.08 895.9C714.94 914.44 738.81 930.26 782.69 943.35" stroke="#FAFAFA" stroke-width="2.2"/>
<path d="M726.02 916.08C720.94 913.53 718.05 916.75 717.35 925.76C715.61 918.42 706.46 919.05 704.6 923.56" stroke="#FAFAFA" stroke-width="2.2"/>
<path d="M744.54 927.77C730.96 921.6 723.89 928.78 723.34 949.31C717.86 932.1 705.37 936.09 701.99 943.35" stroke="#FAFAFA" stroke-width="2.2"/>
<path d="M767.85 938.18C745.98 928.69 728.07 948.42 727.95 964.06C722.91 951.39 703.33 956.87 696.19 970.62" stroke="#FAFAFA" stroke-width="2.2"/>
<path d="M684.09 1003.7C692.47 988.47 713.03 960.98 730.96 972.06" stroke="#FAFAFA" stroke-width="2.2"/>
<path d="M904.42 739.99L904.43 753.87L675.88 885.82L495.46 781.65V767.76L724.01 635.82L904.43 739.99H904.42Z" fill="#263238"/>
<path d="M904.42 739.99L675.88 871.94L495.45 767.77L724 635.83L904.42 740V739.99Z" fill="#455A64"/>
<path d="M904.42 587.21L904.43 601.09L675.88 733.04L495.46 628.87V614.98L724.01 483.04L904.43 587.21H904.42Z" fill="#263238"/>
<path d="M904.42 587.21L675.88 719.16L495.45 614.99L724 483.05L904.42 587.22V587.21Z" fill="#455A64"/>
<path d="M687.94 560.21V1016.7C687.94 1020.78 686.51 1023.64 684.21 1024.99C682.04 1026.25 674.29 1030.71 672.14 1031.96C669.82 1033.3 666.61 1033.11 663.07 1031.06L496.26 934.89C489.18 930.8 483.44 920.86 483.44 912.68V456.19C483.44 452.08 484.89 449.2 487.23 447.87C489.39 446.64 497.09 442.18 499.24 440.94C501.56 439.6 504.77 439.79 508.31 441.84L675.12 538.01C682.2 542.1 687.94 552.04 687.94 560.22V560.21Z" fill="#263238"/>
<path opacity="0.2" d="M675.85 566.38L687.94 559.42V601.11L675.89 608.06L675.85 566.38V566.38Z" fill="black"/>
<path opacity="0.2" d="M916.46 427.5L928.55 420.54V462.23L916.5 469.18L916.46 427.5V427.5Z" fill="black"/>
<path d="M543.58 934.44L532.76 965.67C532.09 967.6 530.11 970 528.34 971.02L522.72 974.26C520.95 975.28 518.08 975.28 516.31 974.26L510.69 971.02C508.92 970 507.48 967.51 507.48 965.47V927.5L519.51 920.56L543.57 934.45L543.58 934.44Z" fill="#263238"/>
<path d="M507.49 927.49L531.55 941.38L520.73 972.61C520.06 974.54 518.08 975.28 516.31 974.26L510.69 971.02C508.92 970 507.48 967.51 507.48 965.47V927.5L507.49 927.49Z" fill="#37474F"/>
<path d="M663.86 1003.73L653.04 1034.96C652.37 1036.89 650.39 1039.29 648.62 1040.31L643 1043.55C641.23 1044.57 638.36 1044.57 636.59 1043.55L630.97 1040.31C629.2 1039.29 627.76 1036.8 627.76 1034.76V996.79L639.79 989.85L663.85 1003.74L663.86 1003.73Z" fill="#263238"/>
<path d="M627.77 996.79L651.83 1010.68L641.01 1041.91C640.34 1043.84 638.36 1044.58 636.59 1043.56L630.97 1040.32C629.2 1039.3 627.76 1036.81 627.76 1034.77V996.8L627.77 996.79Z" fill="#37474F"/>
<path d="M496.25 448.79L663.06 544.96C670.14 549.05 675.88 558.99 675.88 567.17V1023.66C675.88 1026.39 675.88 1031.37 675.88 1038.61C669.69 1034.94 665.42 1032.43 663.05 1031.07L496.24 934.9C489.16 930.81 483.42 920.87 483.42 912.69V456.2C483.42 452.09 484.87 449.21 487.21 447.88C489.53 446.56 492.72 446.77 496.24 448.8L496.25 448.79Z" fill="#37474F"/>
<path opacity="0.2" d="M675.89 567.17V608.06L483.44 496.95V456.2C483.44 452.09 484.89 449.21 487.23 447.88C489.55 446.56 492.74 446.77 496.26 448.8L663.07 544.97C670.15 549.06 675.89 559 675.89 567.18V567.17Z" fill="black"/>
<path d="M760.08 524.71L892.39 448.32V587.21" stroke="#FAFAFA" stroke-width="2.2" stroke-linecap="round" stroke-linejoin="round"/>
<path d="M844.28 531.65L892.39 448.31L868.33 552.48" stroke="#FAFAFA" stroke-width="2.2" stroke-linecap="round" stroke-linejoin="round"/>
<path d="M892.4 448.32L820.23 517.77" stroke="#FAFAFA" stroke-width="2.2" stroke-linecap="round" stroke-linejoin="round"/>
<path d="M892.4 565.05C892.42 552.07 885.02 545.22 870.19 544.5C871.55 538.6 870.07 529.13 862.9 523C855.73 516.87 850.88 520.24 849.43 522.74C850.43 510.81 845.78 504.26 835.46 503.11C842.3 490.49 842.3 483.19 835.46 481.19" stroke="#FAFAFA" stroke-width="2.2" stroke-linecap="round" stroke-linejoin="round"/>
<path d="M892.4 535.12C891.62 525.16 883.99 512.48 876.17 518.59C877.55 504.1 873.07 497.8 862.73 499.7C867.58 486.26 864.92 481.2 854.76 484.53C862.08 475.27 862.9 469.97 857.23 468.62" stroke="#FAFAFA" stroke-width="2.2" stroke-linecap="round" stroke-linejoin="round"/>
<path d="M957.02 413.61C957.04 416.29 955.29 418.97 951.74 421.01L676.68 579.82C669.6 583.91 658.12 583.91 651.04 579.82L472.2 476.57C468.65 474.52 466.9 471.85 466.92 469.17C466.94 466.69 466.94 457.76 466.92 455.28C466.9 452.6 468.65 449.92 472.2 447.88L747.26 289.07C754.34 284.98 765.82 284.98 772.9 289.07L951.74 392.32C955.29 394.37 957.04 397.04 957.02 399.72C957 402.2 957 411.13 957.02 413.61V413.61Z" fill="#37474F"/>
<path d="M651.04 565.93L472.2 462.68C465.12 458.59 465.12 451.96 472.2 447.87L747.26 289.06C754.34 284.97 765.82 284.97 772.9 289.06L951.74 392.31C958.82 396.4 958.82 403.03 951.74 407.12L676.68 565.93C669.6 570.02 658.12 570.02 651.04 565.93V565.93Z" fill="#455A64"/>
<path opacity="0.1" d="M916.45 441.37L832.26 545.54L687.94 628.89L687.92 573.32L916.46 441.37H916.45Z" fill="black"/>
<path opacity="0.1" d="M904.43 601.09L832.26 698.32L687.94 781.67V726.09L904.44 601.09H904.43Z" fill="black"/>
<path opacity="0.1" d="M904.43 753.88L832.26 851.11L687.94 934.46V878.87L904.44 753.88H904.43Z" fill="black"/>
<path d="M573.35 1057.33L352.06 1185.09L102.87 1040.9L324.16 913.14L573.35 1057.33V1057.33Z" fill="#FD5D03"/>
<path opacity="0.5" d="M573.35 1057.33L352.06 1185.09L102.87 1040.9L324.16 913.14L573.35 1057.33V1057.33Z" fill="black"/>
<path d="M324.16 739.96V913.14L102.87 1040.9V867.72L324.16 739.96Z" fill="#FD5D03"/>
<path opacity="0.2" d="M324.16 739.96V913.14L102.87 1040.9V867.72L324.16 739.96Z" fill="black"/>
<path d="M352.06 1011.89V1185.08L102.87 1040.89V867.71L352.05 1011.89H352.06Z" fill="#FD5D03"/>
<path opacity="0.4" d="M352.06 1011.89V1185.08L102.87 1040.89V867.71L352.05 1011.89H352.06Z" fill="black"/>
<path d="M573.35 884.14V1057.33L324.16 913.14V739.96L573.34 884.14H573.35Z" fill="#FD5D03"/>
<path opacity="0.4" d="M573.35 884.14V1057.33L324.16 913.14V739.96L573.34 884.14H573.35Z" fill="black"/>
<path d="M352.06 1185.09V1011.9L573.35 884.14V1057.33L352.06 1185.09V1185.09Z" fill="#FD5D03"/>
<path opacity="0.2" d="M352.06 1185.09V1011.9L573.35 884.14V1057.33L352.06 1185.09V1185.09Z" fill="black"/>
<path d="M324.16 739.96L324.47 644.08L573.04 788.44L573.34 884.13L324.16 739.95V739.96Z" fill="#FD5D03"/>
<path opacity="0.2" d="M324.16 739.96L324.47 644.08L573.04 788.44L573.34 884.13L324.16 739.95V739.96Z" fill="black"/>
<path d="M352.06 1011.89L372.81 928.02L592.09 801.42L573.34 884.14L352.05 1011.9L352.06 1011.89Z" fill="#FD5D03"/>
<path opacity="0.3" d="M352.06 1011.89L372.81 928.02L592.09 801.42L573.34 884.14L352.05 1011.9L352.06 1011.89Z" fill="black"/>
<path d="M102.88 867.72L76.4801 780.73L297.76 652.97L324.16 739.97L102.87 867.73L102.88 867.72Z" fill="#FD5D03"/>
<path opacity="0.1" d="M102.88 867.72L76.4801 780.73L297.76 652.97L324.16 739.97L102.87 867.73L102.88 867.72Z" fill="black"/>
<path d="M102.88 867.72L50.8101 795.82L300.02 939.99L352.06 1011.89L102.88 867.71V867.72Z" fill="#FD5D03"/>
<path opacity="0.5" d="M102.88 867.72L50.8101 795.82L300.02 939.99L352.06 1011.89L102.88 867.71V867.72Z" fill="black"/>
<g opacity="0.7">
<path d="M417.21 1133.58C416.46 1133.58 415.85 1132.97 415.85 1132.22V1101.74C415.85 1100.99 416.46 1100.38 417.21 1100.38C417.96 1100.38 418.57 1100.99 418.57 1101.74V1132.22C418.57 1132.97 417.96 1133.58 417.21 1133.58Z" fill="white"/>
<path d="M413.23 1112.3C413.05 1112.3 412.87 1112.26 412.69 1112.19C412 1111.89 411.68 1111.09 411.98 1110.4L416.82 1099.22L422.22 1105.46C422.71 1106.03 422.65 1106.89 422.08 1107.38C421.51 1107.86 420.65 1107.81 420.16 1107.24L417.59 1104.28L414.47 1111.49C414.25 1112 413.75 1112.31 413.22 1112.31L413.23 1112.3Z" fill="white"/>
<path d="M429.79 1126.4C429.04 1126.4 428.43 1125.79 428.43 1125.04V1094.57C428.43 1093.82 429.04 1093.21 429.79 1093.21C430.54 1093.21 431.15 1093.82 431.15 1094.57V1125.04C431.15 1125.79 430.54 1126.4 429.79 1126.4Z" fill="white"/>
<path d="M425.81 1105.13C425.63 1105.13 425.45 1105.09 425.27 1105.02C424.58 1104.72 424.26 1103.92 424.56 1103.23L429.4 1092.06L434.8 1098.29C435.29 1098.86 435.23 1099.72 434.66 1100.21C434.09 1100.7 433.24 1100.64 432.74 1100.08L430.17 1097.12L427.05 1104.33C426.83 1104.84 426.33 1105.15 425.8 1105.15L425.81 1105.13Z" fill="white"/>
</g>
<g opacity="0.7">
<path d="M380.95 1154.26C380.42 1154.26 379.91 1154.13 379.47 1153.88C378.43 1153.29 377.84 1152.1 377.84 1150.61V1146.88C377.84 1146.13 378.45 1145.52 379.2 1145.52C379.95 1145.52 380.56 1146.13 380.56 1146.88V1150.61C380.56 1151.17 380.71 1151.45 380.82 1151.51C380.92 1151.58 381.24 1151.55 381.71 1151.28C382.91 1150.58 384.24 1147.89 384.24 1145.13V1129.53C384.24 1128.78 384.85 1128.17 385.6 1128.17C386.35 1128.17 386.96 1128.78 386.96 1129.53V1145.13C386.96 1148.68 385.3 1152.33 383.09 1153.62C382.37 1154.04 381.64 1154.25 380.96 1154.25L380.95 1154.26Z" fill="white"/>
<path fill-rule="evenodd" clip-rule="evenodd" d="M366.63 1141.69V1139.34C366.63 1128.26 374.43 1114.74 384.02 1109.21C388.93 1106.38 393.61 1105.96 397.2 1108.04C400.8 1110.12 402.78 1114.38 402.78 1120.04V1120.83L366.63 1141.7V1141.69ZM392.16 1109.45C390.11 1109.45 387.8 1110.16 385.38 1111.56C377.23 1116.26 370.48 1127.22 369.48 1136.91L400.04 1119.26C399.88 1115.01 398.4 1111.87 395.84 1110.39C394.76 1109.77 393.52 1109.45 392.16 1109.45V1109.45Z" fill="white"/>
</g>
<path opacity="0.7" d="M50.8101 795.82L300.02 939.99L352.06 1011.89L297.25 942.53L50.8101 795.82V795.82Z" fill="white"/>
<path opacity="0.7" d="M356.19 1015.37L352.06 1185.08V1011.89L573.35 884.13L356.19 1015.37V1015.37Z" fill="white"/>
<path d="M248.34 813.58C252.94 812.06 257.55 810.45 261.99 808.52C280.53 800.46 296.46 787.26 306.66 769.69C311.42 761.49 314.89 752.5 316.59 743.17C318.13 734.73 318.71 725.59 315.83 717.37C310.91 703.33 296.56 695.95 282.43 694.88C275.04 694.32 267.42 695.37 260.55 698.19C253.22 701.19 247.43 706.31 243.1 712.92C241.19 715.83 238.26 720.47 239.27 724.18C240.3 727.94 245.7 726.59 248.28 725.67C258.72 721.97 265.69 713.23 271.24 704.07C276.22 695.85 280.81 686.63 282.12 677C283.41 667.54 282.25 657.59 279.49 648.49C276.82 639.69 272.41 630.98 264.91 625.36C256.93 619.38 246.71 616.85 236.88 616.33C227.34 615.83 217.2 617.1 208.42 621C204.88 622.57 201.16 624.39 198.74 627.41C197.77 628.61 196.28 630.89 196.95 632.86C197.52 634.52 199.41 635.23 200.9 635.34C205.99 635.71 211.35 631.97 214.93 628.72C219.22 624.83 222.82 619.8 225.8 614.85C230.15 607.62 230.62 599.07 226.5 591.64C222.4 584.26 215.32 578.76 207.87 575.04C200.19 571.21 191.28 568.61 182.63 569.26C181.39 569.35 180.46 566.96 181.99 566.84C186.54 566.5 191.05 566.79 195.53 567.73C212.01 571.2 233.03 583.5 233.42 602.54C233.51 607.11 232.19 611.55 230.03 615.55C227.1 620.97 223.14 626.21 218.73 630.51C214.73 634.41 209.35 637.92 203.7 638.65C199.83 639.15 194.26 637.85 193.09 633.52C192.04 629.64 194.98 625.67 197.56 623.26C200.98 620.06 205.53 618.02 209.94 616.5C220.18 612.96 231.46 611.99 242.18 613.39C252.75 614.77 263.71 618.58 271.38 626.28C278.71 633.64 282.86 643.87 284.99 653.88C287.07 663.68 287.66 674.31 284.93 684.05C281.77 695.32 275.57 706.45 268.3 715.56C264.74 720.02 260.47 723.68 255.5 726.47C251.47 728.74 246.49 730.75 241.77 729.95C237.86 729.29 234.95 726.37 235.06 722.3C235.18 717.62 237.95 713.04 240.6 709.36C245.69 702.27 252.43 697.07 260.69 694.22C268.44 691.54 276.85 690.79 284.98 691.83C301.1 693.89 316.33 703.64 320.46 720.09C322.87 729.68 321.5 740.29 319.07 749.73C316.41 760.02 311.73 769.7 305.57 778.35C292.34 796.92 271.48 811.54 248.65 814.85C248.11 814.93 247.9 813.73 248.38 813.57L248.34 813.58Z" fill="#E0E0E0"/>
<path d="M159.39 530.11C169.25 527.1 171.74 533.56 166.86 549.51C177.09 548.61 184.77 553.64 177.53 558.98C172.7 562.54 167.73 563.19 162.62 560.92C167.59 569.43 160.84 582.72 155.73 581.14C152.32 580.09 151.11 574.91 152.09 565.61C141.68 573.06 134.51 574.48 130.59 569.88C124.71 562.98 141.08 553.54 153.24 554.39C149.46 541.02 152.08 532.34 159.39 530.1V530.11Z" fill="#FD5D03"/>
<path opacity="0.7" d="M159.39 530.11C169.25 527.1 171.74 533.56 166.86 549.51C177.09 548.61 184.77 553.64 177.53 558.98C172.7 562.54 167.73 563.19 162.62 560.92C167.59 569.43 160.84 582.72 155.73 581.14C152.32 580.09 151.11 574.91 152.09 565.61C141.68 573.06 134.51 574.48 130.59 569.88C124.71 562.98 141.08 553.54 153.24 554.39C149.46 541.02 152.08 532.34 159.39 530.1V530.11Z" fill="white"/>
<path d="M166.26 564.44C166.13 564.57 165.9 564.6 165.73 564.54C163.82 563.86 162.2 562.65 160.61 561.43C159.6 560.66 158.54 559.96 157.52 559.2C156.49 558.45 155.49 557.69 154.39 557.05C153.86 556.74 153.32 556.44 152.77 556.16C151.72 555.62 150.56 555.39 149.62 554.19C148.83 553.19 149.77 551.98 150.83 551.85C151.97 551.7 152.87 551.87 153.9 552.33C154.57 552.62 155.23 552.95 155.88 553.3C156.99 553.91 158.07 554.56 159.09 555.31C160.16 556.1 161.26 556.86 162.31 557.67C163.04 558.23 163.76 558.84 164.41 559.49C165.29 560.38 167.53 563.22 166.26 564.44V564.44Z" fill="#455A64"/>
<path d="M1175.5 206.94C1160.2 306.49 1149.28 365.74 1142.74 384.7C1134.85 407.57 1132.41 430.18 1109.52 427.85C1076.46 424.48 1002.1 417.13 988.04 417.13C981.48 417.13 974.77 415.88 968.26 417.98C963.9 419.39 959.94 421.79 955.91 423.96C945.53 429.57 934.4 433.8 922.91 436.52C921.64 436.82 920.21 437.08 919.12 436.37C917.88 435.57 917.6 433.85 917.87 432.4C918.58 428.49 922.05 425.76 925.38 423.61C927.54 422.21 936.08 417.3 933.2 414.19C931.28 412.12 926.17 413.28 923.72 413.33C917.97 413.45 912.17 414.07 906.56 415.35C881.5 421.07 874.93 416.88 873.69 407.68C872.6 399.66 870.74 369.02 917.57 362.89C936.43 360.42 974.95 364.1 992.85 365.99C1009.01 367.69 1051.66 369.18 1083.56 370.1C1090.19 339.01 1107.73 242.01 1120.85 224.38C1136.44 203.44 1152.35 203.63 1175.5 206.94V206.94Z" fill="#FFA8A7"/>
<path d="M1159.34 350.72C1122.83 355.46 1098.75 349.47 1087.1 332.73C1094.09 305.28 1099.58 283.92 1103.56 268.65C1109.53 245.74 1112.73 229.81 1126.31 214.67C1139.89 199.52 1164.77 202.63 1175.85 204.66L1159.34 350.72Z" fill="#37474F"/>
<path d="M1313.34 997.92L1274.84 997.96L1263.79 914.38L1312.36 912.48L1313.34 997.92V997.92Z" fill="#FFA8A7"/>
<path d="M1185.56 956.2C1178.99 967.54 1157.98 966.62 1140.45 962.6L1138.43 880.45L1189.91 878.43L1185.56 956.19V956.2Z" fill="#FFA8A7"/>
<path d="M1310.73 469.99C1311.66 493.68 1310.56 575.6 1307.43 715.75C1308.7 725.94 1319.25 743.74 1321.46 780.54C1323.6 816.12 1321.03 871.97 1313.76 948.08C1299.06 955.76 1283.8 956.66 1267.96 950.78C1251.83 840.71 1240.85 768.13 1235.02 733.06C1229.93 702.45 1224.13 646.11 1217.6 564.03L1198.61 721.84C1202.15 738.48 1203.59 757.36 1202.91 778.51C1202.39 794.86 1197.47 842.75 1188.15 922.19C1172.51 928.05 1156.09 928.45 1138.9 923.38C1131.25 800.1 1126.99 730.98 1126.11 716.03C1125.11 698.99 1124.96 615.26 1125.64 464.85L1310.71 469.98L1310.73 469.99Z" fill="#FD5D03"/>
<path opacity="0.2" d="M1200.48 706.36L1202.22 568.63C1181.94 557.79 1168.22 546.26 1161.07 534.04C1176.35 547.69 1195.19 557.68 1217.61 564.04L1200.48 706.37V706.36Z" fill="black"/>
<path d="M1322.04 1002C1324.16 1008.83 1324.35 1014.69 1322.63 1019.59C1321.44 1022.97 1315.66 1030.13 1312.09 1036.41C1308.23 1043.22 1309.52 1051.51 1309.02 1060.18C1308.52 1068.85 1304.46 1075.25 1295.78 1081.25C1287.1 1087.25 1273.64 1089.83 1258.44 1089.34C1242.53 1088.83 1233.46 1081.69 1231.84 1079.35C1230.33 1077.17 1229.61 1068.88 1230.86 1067.61L1322.04 1001.99V1002Z" fill="#263238"/>
<path d="M1269.17 980.62C1269.31 978.71 1269.43 977.69 1270.28 976.51C1271.08 975.39 1272.39 974.68 1273.74 974.32C1278.15 973.15 1283.33 973.49 1287.84 973.87C1292.78 974.28 1297.67 975.19 1302.41 976.59C1303.82 977.01 1305.27 977.52 1306.14 978.4C1306.79 979.05 1307.1 980.84 1306.94 981.74C1306.42 984.73 1306.39 986.37 1305.06 990.28C1308.11 987.67 1308.07 983.43 1310.94 980.5C1313.21 978.18 1313.07 977.87 1313.08 974.56C1315.29 973.88 1317.48 980.97 1319.44 987.23C1321.71 994.48 1324.52 1002.67 1321.71 1010.15C1320.14 1014.32 1317.49 1017.99 1315.06 1021.75C1310.87 1028.23 1307.22 1035.3 1306.63 1042.92C1306.37 1046.26 1306.71 1049.63 1306.29 1052.95C1304.83 1064.52 1296.86 1073.77 1285.47 1077.5C1275.23 1080.85 1263.93 1081.86 1253.24 1080.39C1243.24 1079.01 1230.17 1075.48 1230.35 1063.56C1230.46 1056.52 1234.33 1050.01 1238.98 1044.58C1243.63 1039.16 1249.15 1034.45 1253.52 1028.82C1255.76 1025.93 1257.68 1022.82 1259.49 1019.65C1263 1013.51 1266.1 1007.07 1268.03 1000.29C1268.95 997.05 1269.43 993.97 1269.4 990.61C1269.38 987.45 1269.04 982.55 1269.17 980.64V980.62Z" fill="#455A64"/>
<path d="M1262.46 1014.15C1265.01 1012.52 1270.75 1011.85 1279.67 1012.13C1287.74 1012.38 1293.87 1015.57 1297.27 1017.88C1298.98 1019.04 1299.21 1021.42 1297.8 1022.92C1296.63 1024.17 1294.7 1024.42 1293.27 1023.46C1290.06 1021.28 1284.46 1019.11 1277.64 1018.65C1272.19 1018.28 1262.27 1018.72 1257.97 1022.21C1256.99 1019.62 1258.48 1016.93 1262.44 1014.16L1262.46 1014.15Z" fill="#F5F5F5"/>
<path d="M1254.55 1027.42C1256.8 1025.51 1262.38 1024.7 1271.31 1024.97C1279.38 1025.22 1285.9 1028.91 1289.31 1031.22C1291.02 1032.38 1291.25 1034.76 1289.84 1036.26C1288.67 1037.51 1286.74 1037.76 1285.31 1036.8C1282.09 1034.62 1276.91 1032.15 1270.09 1031.68C1264.64 1031.31 1253.71 1031.27 1248.27 1034.77C1248.76 1031.47 1250.85 1029.02 1254.54 1027.41L1254.55 1027.42Z" fill="#F5F5F5"/>
<path d="M1301.78 1004.47C1303.13 1005.22 1303.68 1006.84 1303.09 1008.24C1302.39 1009.89 1300.38 1010.6 1298.75 1009.78C1297.54 1009.17 1296.16 1008.51 1295 1008.05C1290.43 1006.24 1284.81 1004.67 1280.41 1004.65C1273.84 1004.62 1268.52 1005.51 1265.61 1007.28C1264.06 1006.4 1265.46 1002.62 1267.76 1001.21C1271.35 999.74 1275.23 998.55 1284.49 999.14C1291.97 999.62 1298.48 1002.65 1301.78 1004.47V1004.47Z" fill="#F5F5F5"/>
<path d="M1195.08 987.48C1196.64 993.42 1196.54 998.05 1194.78 1001.37C1192.15 1006.35 1177.58 1011.11 1166.65 1011.22C1155.72 1011.33 1146.93 1011.95 1138.28 1017.11C1129.62 1022.27 1114.09 1030.42 1092 1030.86C1069.92 1031.3 1054.04 1021.32 1052.69 1018.13C1051.35 1014.94 1051.22 1009.99 1052.6 1007.42L1195.08 987.48V987.48Z" fill="#263238"/>
<path d="M1157.51 948.77C1158.06 949.2 1158.62 949.69 1158.8 950.37C1158.98 951.04 1158.75 951.73 1158.55 952.39C1158.3 953.19 1155.78 961.49 1155.99 961.54C1160.57 962.72 1165.56 963.87 1169.88 961.94C1172.39 960.82 1174.34 958.78 1176.23 956.78C1177.67 955.26 1179.12 953.73 1180.56 952.21C1181.74 950.96 1185.57 949.38 1186.02 947.75L1186.32 942.32C1191.16 942.13 1190.01 958.39 1192.54 969.25C1194.85 979.2 1197.7 990.73 1194.99 994.2C1187.75 1001.96 1167.46 1004 1156.77 1004.33C1139.96 1004.84 1125.14 1017.81 1112.21 1020.82C1088.47 1026.34 1066.39 1019.88 1058.13 1014.5C1048.56 1008.26 1050.37 993.68 1059.29 988.27C1065.41 984.56 1075.56 982.95 1083.29 979.91C1090.87 976.92 1098.06 974.26 1105.44 970.74C1116.29 965.55 1126.27 959.78 1131.24 952.48C1133.21 949.59 1134.79 946.38 1137.28 943.92C1138.07 943.14 1138.99 942.42 1140.08 942.22C1141.04 942.04 1142.03 942.28 1142.98 942.51C1143.56 942.65 1144.14 942.8 1144.7 942.95C1149.36 944.19 1153.54 945.71 1157.51 948.78V948.77Z" fill="#455A64"/>
<path d="M1115.65 965.41C1116.8 962.73 1119.51 961.1 1123.77 960.52C1128.66 959.85 1137.05 963.83 1142.17 968.46C1144.26 970.36 1143.82 973.75 1141.28 975C1139.77 975.74 1137.98 975.44 1136.77 974.28C1133.43 971.08 1125.86 965.19 1115.66 965.41H1115.65Z" fill="#F5F5F5"/>
<path d="M1100.23 973.11C1102.47 969.95 1105.66 968.49 1109.78 968.75C1118.21 969.39 1124.92 972.27 1129.91 977.39C1131.82 979.35 1131.53 982.51 1129.07 983.71C1127.61 984.42 1125.88 984.13 1124.72 983C1121.34 979.68 1114.58 972.72 1100.23 973.11V973.11Z" fill="#F5F5F5"/>
<path d="M1083.28 979.9C1085.75 977.06 1089.04 975.76 1093.17 976.02C1101.02 976.69 1107.44 979.58 1112.43 984.7C1114.34 986.66 1114.05 989.82 1111.59 991.02C1110.13 991.73 1108.4 991.44 1107.24 990.31C1103.86 986.99 1097.63 979.51 1083.28 979.9V979.9Z" fill="#F5F5F5"/>
<path d="M1240.02 205.32C1254.19 206.93 1270.94 207.81 1284.46 209.58C1301.89 211.87 1315.49 229.9 1319.74 257.78C1322.86 278.27 1317.89 317.88 1304.84 376.59L1311.11 480.44C1285.56 499.26 1176.86 509.13 1122.66 470.01C1123.5 352.17 1125.34 284.2 1128.16 266.12C1133.99 228.79 1143.09 205.59 1185.2 202.92L1240.01 205.33L1240.02 205.32Z" fill="#455A64"/>
<path d="M1360.26 388.2L1295.55 297.94C1276.88 274.8 1273.18 245.35 1284.45 209.58C1328.89 213.84 1337.24 244.92 1354.66 270.43C1372.08 295.94 1423.47 368.6 1423.11 378.08C1422.75 387.55 1420.6 396.88 1404.04 419.63C1384.63 450.04 1369.17 472.06 1357.68 485.68C1345.73 499.84 1319.46 529.12 1302.21 538.39C1259.38 561.41 1242.52 534.67 1238.62 527.32C1234.13 518.88 1237.11 511.43 1261.49 501.15C1266.95 498.85 1272.17 495.89 1277.05 492.53C1279.49 490.85 1287.61 486.71 1283.36 483.25C1282.07 482.2 1280.33 481.97 1278.68 481.77C1274.78 481.3 1270.88 480.84 1266.97 480.37C1264.42 480.06 1261.75 479.71 1259.67 478.21C1257.59 476.71 1256.38 473.66 1257.76 471.5C1258.97 469.6 1261.5 469.16 1263.73 468.91C1277.2 467.39 1290.74 466.4 1304.29 465.95C1307.04 465.86 1311.78 466.85 1314.06 465.28C1315 464.63 1316.86 462.65 1317.51 461.66C1319.35 458.91 1321.11 456.1 1322.87 453.29C1327.61 445.7 1332.22 438.03 1336.82 430.35C1341.02 423.32 1348.84 409.28 1360.27 388.22L1360.26 388.2Z" fill="#FFA8A7"/>
<path d="M1361.51 336.39C1349.07 345.52 1337.65 350.24 1327.28 350.56L1301.82 316.08C1287.68 304.31 1278.71 290.07 1274.91 273.36C1268.13 243.53 1270.81 213.86 1275.31 206.94C1326.12 207.67 1323.17 217.09 1358.4 268.52C1366.78 280.76 1375.45 293.11 1383.75 305.11C1381.37 316.83 1373.96 327.25 1361.51 336.38V336.39Z" fill="#37474F"/>
<path d="M1270.18 120.52L1270.23 120.47C1262.93 145.04 1257.97 159.86 1255.34 164.94C1252.45 170.53 1248.62 173.44 1243.84 173.68L1243.09 147.21L1247.34 123.42L1249.96 59.0099C1259.26 57.4699 1267.11 61.1699 1273.51 70.1099C1278.13 76.5699 1280.25 90.2699 1270.19 120.51L1270.18 120.52Z" fill="#263238"/>
<path d="M1244.31 123.72C1245.57 119.69 1246.81 117.41 1250.52 113.45C1254.21 109.51 1268.92 105.2 1275.62 117.69C1282.45 130.42 1271.03 146.65 1262.33 151.69C1254.9 156 1249 155.22 1244.65 149.35L1244.91 208.65C1239.73 220.58 1216.29 231.34 1202.37 229.57C1191.26 228.16 1181.02 219.41 1190.95 206.69L1190.15 189.79C1180.25 191.8 1172.86 192.55 1167.96 192.04C1155.73 190.77 1147.62 181.57 1143.28 168.61C1136.32 147.8 1133.23 130.87 1136.19 89.1198C1139.43 43.3498 1192.32 40.2598 1221.79 56.8198C1241.43 67.8598 1248.94 90.1698 1244.32 123.73L1244.31 123.72Z" fill="#FFA8A7"/>
<path d="M1119.33 41.6699C1117.99 31.6799 1121.45 20.9699 1131.9 17.4299C1139.79 14.7499 1147.88 14.9099 1155.13 21.2999C1157.72 14.2599 1164.53 8.9599 1171.99 8.1799C1179.45 7.3999 1187.21 11.1599 1191.21 17.5099C1194.37 13.0599 1198.09 10.3799 1203.27 9.1299C1209.32 7.6599 1216.8 9.1999 1221.09 12.3599C1225.38 15.5199 1230.37 21.4999 1229.11 28.9499C1237.55 25.5699 1246.33 28.3699 1252.59 35.8399C1256.34 40.3099 1258.39 46.1099 1258.56 51.9299C1258.64 54.7599 1258.47 58.2199 1257.29 60.8499C1256.07 63.5899 1253.61 65.3799 1252.9 68.4799C1252.24 71.3799 1250.89 74.0699 1251.29 76.9999C1251.98 82.0499 1253.09 87.0599 1253.75 92.1299C1254.39 97.0199 1254.96 101.96 1254.99 106.89C1255 109.25 1253.32 110.92 1251.35 112.67C1248.15 115.51 1247.43 116.99 1245.04 121.82C1243.98 123.97 1242.97 129.31 1240.88 130.77C1234.49 135.23 1233.79 120.75 1233.48 117.98C1233.17 115.21 1233.09 107.96 1233.61 98.7499C1231.56 98.6199 1223.12 98.4799 1216.6 90.9299C1214.47 88.4599 1212.81 84.7099 1212.38 81.5199C1212.1 79.4699 1211.79 77.6899 1211.88 75.6399C1207.73 82.5299 1198.02 85.3599 1191.13 84.7399C1179.54 83.6999 1175.57 78.7499 1173.7 75.0999C1172.85 78.3399 1171.44 82.4799 1169.1 84.8799C1166.14 87.9099 1162.19 89.7399 1158.72 90.9299C1152.25 93.1299 1144.54 90.3599 1139.77 85.4699C1135.06 92.2299 1123.13 89.2099 1120.48 87.3099C1114.42 82.9599 1112.54 77.7899 1111.88 70.3599C1111.22 62.9299 1114.21 54.5099 1122.42 51.5899C1120.86 48.6099 1119.8 45.1899 1119.33 41.6799V41.6699Z" fill="#263238"/>
<path d="M1190.14 189.79C1208.02 185.25 1220.04 181.15 1226.19 177.48C1232.36 173.8 1237.3 167.69 1238.64 163.87C1237.72 169.29 1235.49 174.51 1231.96 179.52C1227.63 185.65 1213.81 191.48 1190.5 196.99L1190.14 189.78V189.79Z" fill="#F28F8F"/>
<path d="M1197.15 115.4C1200.36 115.23 1203.09 117.8 1203.26 121.13C1203.43 124.47 1200.96 127.31 1197.75 127.47C1194.54 127.64 1191.8 125.07 1191.64 121.74C1191.47 118.41 1193.94 115.57 1197.15 115.4Z" fill="#263238"/>
<path d="M1189.76 156.97C1193.89 156.75 1197.41 160.06 1197.63 164.35C1197.84 168.65 1194.67 172.3 1190.53 172.52C1186.4 172.74 1182.87 169.43 1182.66 165.14C1182.45 160.85 1185.63 157.19 1189.76 156.97Z" fill="#F28F8F"/>
<path d="M1205.55 98.3699C1208.96 100.04 1210.43 104.26 1208.83 107.81L1196.47 101.77C1198.07 98.2299 1202.14 96.7099 1205.55 98.3699V98.3699Z" fill="#263238"/>
<path d="M1143.65 96.96C1146.56 94.48 1150.86 94.92 1153.26 97.95L1142.71 106.94C1140.32 103.91 1140.74 99.44 1143.65 96.96V96.96Z" fill="#263238"/>
<path d="M1151.19 114.44C1154.29 114.28 1156.94 116.76 1157.1 119.99C1157.26 123.22 1154.87 125.96 1151.77 126.13C1148.66 126.29 1146.02 123.81 1145.86 120.58C1145.7 117.35 1148.09 114.61 1151.19 114.44Z" fill="#263238"/>
<path d="M1173.7 113.9L1173.52 149.4L1154.72 144.02L1173.7 113.9Z" fill="#F28F8F"/>
<path d="M1125.49 163.36L1109.19 152.5C1108.55 152.07 1108.38 151.21 1108.81 150.57C1109.24 149.93 1110.1 149.76 1110.74 150.18L1127.05 161.04C1127.69 161.47 1127.86 162.33 1127.43 162.97C1127.22 163.28 1126.91 163.48 1126.57 163.56C1126.21 163.64 1125.82 163.58 1125.49 163.36V163.36Z" fill="#E0E0E0"/>
<path d="M1124.2 170.57L1105.12 166.14C1104.37 165.96 1103.9 165.22 1104.08 164.47C1104.25 163.72 1105.01 163.25 1105.75 163.43L1124.83 167.86C1125.58 168.03 1126.05 168.78 1125.87 169.53C1125.74 170.07 1125.32 170.46 1124.81 170.58C1124.61 170.62 1124.4 170.63 1124.19 170.58L1124.2 170.57Z" fill="#E0E0E0"/>
<path d="M1105.5 182.39C1105.24 181.67 1105.61 180.87 1106.33 180.6L1124.73 173.87C1125.4 173.62 1126.25 173.98 1126.52 174.7C1126.78 175.42 1126.41 176.22 1125.69 176.49L1107.29 183.22C1107.23 183.24 1107.17 183.26 1107.11 183.27C1106.44 183.42 1105.75 183.05 1105.5 182.39V182.39Z" fill="#E0E0E0"/>
<path d="M951.31 323.77L965.01 290.02C965.82 287.77 968.32 286.6 970.57 287.41C972.82 288.22 974 290.71 973.19 292.97L959.49 326.72C958.68 328.97 956.18 330.14 953.93 329.33C952.84 328.94 952 328.15 951.51 327.18C951 326.15 950.9 324.94 951.31 323.78V323.77Z" fill="#E0E0E0"/>
<path d="M928.54 325.25L928.11 283.15C928.08 280.75 929.99 278.78 932.39 278.75C934.79 278.71 936.77 280.65 936.8 283.03L937.23 325.13C937.26 327.53 935.35 329.5 932.95 329.53C931.22 329.56 929.72 328.57 929 327.12C928.72 326.56 928.56 325.92 928.55 325.25H928.54Z" fill="#E0E0E0"/>
<path d="M892.25 298.11C894.24 296.77 896.94 297.3 898.28 299.29L918.95 329.3C920.21 331.12 919.77 333.98 917.78 335.33C915.79 336.67 913.09 336.14 911.75 334.15L891.08 304.14C890.97 303.98 890.88 303.82 890.79 303.64C889.84 301.73 890.43 299.35 892.25 298.11V298.11Z" fill="#E0E0E0"/>
</svg>
